<svg version="1.1" id="Layer_1" xmlns="http://www.w3.org/2000/svg" xmlns:xlink="http://www.w3.org/1999/xlink" x="0px" y="0px"
	 width="100%" viewBox="0 0 496 496" enable-background="new 0 0 496 496" xml:space="preserve">
<path fill="#000000" opacity="1.000000" stroke="none" 
	d="
M204.179382,338.920868 
	C201.377243,339.009857 200.602676,337.701599 200.552292,335.493774 
	C200.500671,333.230408 201.852768,332.695557 203.674423,332.472656 
	C205.653397,332.230438 207.623932,331.919891 209.600693,331.658386 
	C212.608795,331.260468 215.523712,330.554504 217.885162,328.528809 
	C219.974274,326.736725 221.955597,324.317566 221.218185,321.681335 
	C220.413391,318.804169 217.207581,320.037598 215.074005,320.041962 
	C189.914459,320.094116 164.755203,320.285339 139.595673,320.382629 
	C137.514847,320.390656 134.673950,321.619232 134.449203,317.660553 
	C134.246033,314.081879 136.132141,313.001709 139.262070,312.882721 
	C141.253159,312.807007 143.265442,312.671997 145.217896,312.299713 
	C155.949936,310.253235 159.397705,306.360016 159.632355,295.409943 
	C159.889343,283.418060 159.897018,271.419586 159.905960,259.423889 
	C159.938583,215.602249 159.946289,171.780563 159.901108,127.958954 
	C159.896484,123.480469 159.796906,119.013496 159.040375,114.530830 
	C157.930862,107.956734 153.977554,104.650085 147.833969,103.486694 
	C144.736877,102.900208 141.584457,102.515358 138.439240,102.301239 
	C135.763275,102.119064 134.601517,101.031464 134.598557,98.270569 
	C134.595367,95.292397 136.135834,94.618301 138.691376,94.676445 
	C154.010529,95.024933 169.329620,95.502663 184.650894,95.602158 
	C208.643539,95.757988 232.638367,95.736145 256.631317,95.608162 
	C266.954132,95.553093 277.273834,95.014168 287.596680,94.767746 
	C289.530151,94.721588 291.606201,94.168762 293.752533,95.941467 
	C292.507080,108.238510 292.248474,120.853371 291.740082,133.457764 
	C291.598480,136.968964 293.759979,139.978561 292.894592,143.645874 
	C292.553864,145.089813 295.303497,145.402847 296.953186,145.662689 
	C306.780640,147.210526 315.866425,150.511642 324.107025,156.285248 
	C348.685638,173.505676 346.668945,207.015625 329.605896,225.329300 
	C320.168823,235.458008 308.314453,241.078339 294.306122,244.483398 
	C298.493927,245.862946 301.870667,247.013535 305.271210,248.088898 
	C319.998718,252.746216 326.720917,264.124817 330.265350,278.050781 
	C333.381592,290.294373 336.286682,302.591797 339.269012,314.869354 
	C340.175171,318.599701 341.254242,322.274078 343.107361,325.652313 
	C346.726105,332.249237 353.042389,333.709381 359.032104,329.166962 
	C361.129089,327.576599 362.879883,325.489990 364.624939,323.487274 
	C366.170227,321.713837 367.595886,321.741547 369.338867,323.122711 
	C371.101501,324.519409 370.612518,325.766022 369.573059,327.393616 
	C361.883728,339.433167 349.603760,344.845917 335.694885,342.385376 
	C323.242096,340.182373 316.685730,331.818268 313.667023,320.509094 
	C309.939423,306.544006 307.019958,292.364136 303.686218,278.292480 
	C302.579834,273.622467 301.597260,268.891846 299.265686,264.633789 
	C298.193207,264.774170 298.381378,265.566254 298.372894,266.143066 
	C298.128113,282.787964 298.019165,299.433563 300.097717,315.992218 
	C300.503479,319.224457 299.650757,320.535187 296.193756,320.465057 
	C284.700104,320.231873 273.201843,320.220245 261.705170,320.150574 
	C259.088928,320.134735 257.023102,319.463654 256.878876,316.387878 
	C256.764862,313.956482 256.051300,311.293213 259.687775,310.489807 
	C277.441406,306.567474 284.659576,293.687927 287.661072,277.312683 
	C288.649323,271.921204 289.631958,266.521790 290.350433,261.090729 
	C290.686401,258.551025 291.241180,256.296570 293.576141,254.748703 
	C290.676758,250.230392 286.532501,248.224899 281.861938,247.392731 
	C272.283447,245.686111 262.589905,246.439819 252.934952,246.422043 
	C250.076065,246.416779 249.234589,247.985229 249.242081,250.565887 
	C249.306396,272.726288 249.110229,294.890320 249.466248,317.045654 
	C249.627686,327.091919 253.600281,330.711945 263.462189,331.724365 
	C264.455719,331.826385 265.469116,331.867493 266.432709,332.102936 
	C268.731812,332.664673 271.730133,332.421356 271.281860,336.279663 
	C270.796478,340.457397 267.725800,338.904541 265.527985,338.820007 
	C245.215622,338.038696 224.907410,337.926086 204.179382,338.920868 
M204.465134,203.618042 
	C209.139984,203.803101 213.782425,203.531418 218.388016,202.673737 
	C220.645355,202.253372 222.704163,201.622574 222.623337,198.740067 
	C222.269119,186.107101 223.708084,173.425110 221.676285,160.840576 
	C220.748901,155.096527 218.019089,152.326965 212.367081,151.307602 
	C209.426788,150.777298 206.443710,150.487137 203.483810,150.061722 
	C201.498474,149.776382 200.692719,148.591995 200.711502,146.599197 
	C200.732315,144.393478 201.942398,143.695648 203.886139,143.712433 
	C206.551102,143.735443 209.216095,143.790878 211.880997,143.786880 
	C232.036316,143.756592 252.191879,143.759415 272.346802,143.649216 
	C278.102295,143.617752 282.377533,140.938416 282.050476,137.144348 
	C280.801575,122.655258 276.033203,106.803055 257.453918,104.292786 
	C239.560928,101.875244 221.547394,102.715096 203.610565,103.700623 
	C195.808075,104.129318 192.470306,108.122925 191.497025,115.905785 
	C190.858231,121.013916 190.454453,126.184227 190.422638,131.329651 
	C190.301056,150.985672 190.272049,170.643570 190.405045,190.299438 
	C190.507492,205.439636 187.981277,203.481125 204.465134,203.618042 
M309.170227,169.387161 
	C307.180359,165.504288 304.867126,161.914276 301.274017,159.234634 
	C290.560822,151.245026 278.269806,149.566818 265.412567,150.105484 
	C253.996948,150.583725 249.568130,154.625290 249.423676,166.065628 
	C249.131226,189.225998 249.337082,212.392380 249.231613,235.555786 
	C249.216736,238.823975 250.516830,240.027527 253.672195,239.956940 
	C261.667664,239.778046 269.704956,240.202301 277.655304,239.540924 
	C293.419800,238.229492 306.089447,231.805313 311.009613,215.541809 
	C315.613251,200.324463 315.565887,185.033401 309.170227,169.387161 
M221.423584,212.792923 
	C220.141571,211.521866 218.473419,211.473907 216.819427,211.207214 
	C210.037094,210.113571 203.214966,210.684372 196.411972,210.475891 
	C191.877151,210.336914 190.210648,211.690445 190.262451,216.379318 
	C190.473801,235.512680 190.403763,254.649567 190.365967,273.785034 
	C190.349869,281.936890 190.460037,290.067200 191.306625,298.192902 
	C192.116791,305.969147 195.579666,310.543488 202.416779,311.489563 
	C207.182602,312.149017 212.038208,312.134064 216.825302,312.672699 
	C221.526337,313.201599 222.769867,311.211304 222.741928,306.694916 
	C222.571030,279.074005 222.687576,251.451477 222.622147,223.829712 
	C222.613937,220.360291 222.099594,216.892044 221.423584,212.792923 
z"/>
<path fill="#000000" opacity="1.000000" stroke="none" 
	d="
M165.676758,355.930389 
	C165.494965,358.186737 164.766220,360.185242 165.997742,361.890747 
	C168.354553,362.376984 168.103134,359.520508 170.137299,359.122375 
	C170.137299,361.651428 170.137299,364.034576 170.137299,366.444672 
	C168.475281,367.092041 167.883820,364.235626 165.834061,365.526123 
	C165.372314,367.783600 163.974075,370.869446 167.026581,372.244141 
	C170.662048,373.881378 171.897064,369.936249 173.753738,367.726837 
	C176.344666,372.516602 175.517899,374.238800 170.673798,374.350708 
	C166.883209,374.438263 163.088974,374.368286 159.151428,374.368286 
	C159.871658,367.463074 159.931976,361.134857 159.332306,354.591583 
	C155.694534,354.840454 155.131287,357.266174 154.333054,359.337158 
	C152.838959,363.213470 151.519745,367.157318 150.015839,371.029633 
	C149.503265,372.349457 149.185532,374.152313 147.202469,374.044922 
	C145.362030,373.945251 144.944382,372.243378 144.379868,370.919037 
	C141.913544,365.133026 139.527512,359.312836 136.977081,353.179779 
	C139.426407,352.018890 141.861115,352.742279 144.506943,352.708313 
	C144.821030,357.764191 147.205872,362.016327 149.166702,367.425964 
	C151.060364,362.119934 154.348892,358.147980 151.581451,352.596069 
	C158.626648,351.963379 165.233322,351.776093 171.804749,352.325409 
	C175.318771,352.619110 174.278091,355.503906 173.965256,358.230560 
	C171.302322,356.657196 169.629105,352.117371 165.676758,355.930389 
z"/>
<path fill="#000000" opacity="1.000000" stroke="none" 
	d="
M330.073364,368.889648 
	C328.793732,373.051849 325.867310,374.256866 322.265564,374.332062 
	C319.150848,374.397095 316.033691,374.345581 312.753906,374.345581 
	C312.952942,366.770599 313.452942,359.867401 312.409698,352.650055 
	C317.671204,352.611664 323.032074,350.702911 327.264496,354.783966 
	C329.856232,357.283020 327.621338,359.982727 326.094971,362.298676 
	C327.546326,364.452820 330.322571,365.539429 330.073364,368.889648 
M323.756683,366.903961 
	C323.170410,365.126892 321.654236,363.429688 320.266510,364.931671 
	C318.319733,367.038666 318.674347,369.933838 320.422699,372.392700 
	C323.507446,371.956482 323.868347,369.918671 323.756683,366.903961 
M322.601929,356.962585 
	C322.397736,355.707520 321.629974,354.214722 320.466705,355.093323 
	C318.264587,356.756683 319.191956,359.086212 319.928558,361.262665 
	C322.591278,361.056396 322.530151,359.296509 322.601929,356.962585 
z"/>
<path fill="#000000" opacity="1.000000" stroke="none" 
	d="
M276.494141,365.195557 
	C272.141602,367.501831 275.357697,370.806854 275.157349,373.819244 
	C272.951324,374.799622 270.682526,374.255768 268.233337,374.157959 
	C268.642456,366.906097 269.512817,359.895966 267.516876,352.369568 
	C270.679779,352.369568 273.619629,352.243286 276.543762,352.403748 
	C279.699493,352.576965 282.983398,352.716461 284.575134,356.260010 
	C286.045319,359.533051 283.460938,361.474701 281.887817,364.076965 
	C284.616486,366.483887 284.152222,370.430389 286.346527,373.208496 
	C282.332733,375.489929 280.087006,374.780762 278.812531,370.859314 
	C278.204315,368.988007 278.186615,366.909912 276.494141,365.195557 
M278.817932,358.460907 
	C278.763916,356.775513 278.723053,354.845612 276.546265,354.734344 
	C274.576996,354.633759 274.324188,356.380890 274.378479,357.921112 
	C274.433258,359.474213 273.715179,361.635406 275.784149,362.178497 
	C277.836975,362.717377 278.581299,361.018097 278.817932,358.460907 
z"/>
<path fill="#000000" opacity="1.000000" stroke="none" 
	d="
M301.196045,374.519623 
	C295.020813,375.348785 290.557129,373.380890 288.535950,369.216339 
	C286.374176,364.761963 287.413239,357.943848 290.736053,354.779938 
	C294.143738,351.535156 299.391449,350.819794 303.742401,353.080475 
	C308.149353,355.370178 309.474457,359.291504 309.307617,363.941101 
	C309.119415,369.186035 306.540771,372.682343 301.196045,374.519623 
M293.385406,365.111481 
	C293.700836,366.397858 293.929413,367.713562 294.351624,368.963837 
	C295.013855,370.924835 295.992523,372.763153 298.430023,372.674316 
	C301.016205,372.580017 301.985718,370.704376 302.677643,368.482056 
	C303.865417,364.666931 303.410919,360.930176 302.302673,357.243591 
	C301.756714,355.427368 300.507812,353.809570 298.518768,353.695404 
	C296.463531,353.577393 295.274445,355.254456 294.577911,356.983276 
	C293.643127,359.303406 293.162872,361.755554 293.385406,365.111481 
z"/>
<path fill="#000000" opacity="1.000000" stroke="none" 
	d="
M240.322052,363.854889 
	C238.934738,372.419891 233.573441,376.357269 226.425797,374.487488 
	C219.897263,372.779633 216.725128,366.023041 219.107758,358.900238 
	C221.034302,353.140808 228.476273,350.137909 234.411102,352.862488 
	C238.874512,354.911591 240.550766,358.672424 240.322052,363.854889 
M232.199066,371.652496 
	C234.967316,367.098206 235.042984,362.288605 233.377228,357.398682 
	C232.717194,355.461121 231.439621,353.680786 229.197128,353.705200 
	C227.182266,353.727112 226.036606,355.407898 225.433716,357.187378 
	C224.071869,361.206940 223.797668,365.284546 225.453659,369.302704 
	C226.610489,372.109711 228.422775,373.695862 232.199066,371.652496 
z"/>
<path fill="#000000" opacity="1.000000" stroke="none" 
	d="
M134.586533,367.897949 
	C137.247009,372.499756 136.458328,374.201202 131.698242,374.346497 
	C127.905334,374.462280 124.106064,374.369843 120.166870,374.369843 
	C120.715157,366.877502 121.428871,359.871765 119.552956,352.146149 
	C123.894585,352.146149 128.011963,351.899658 132.087112,352.209198 
	C137.053009,352.586426 134.923370,356.045532 134.740555,358.713776 
	C132.668259,356.882111 131.813919,353.028290 128.190308,354.704620 
	C124.998253,356.181305 126.605652,359.227997 126.576797,361.676849 
	C129.054932,362.534790 129.262833,359.842285 130.959976,359.353790 
	C132.530945,361.702484 131.910812,364.090424 131.568756,366.443756 
	C129.430862,367.506531 129.157181,364.022430 126.837517,365.222443 
	C126.499901,367.551880 124.922104,370.784790 128.114243,372.261169 
	C131.504852,373.829285 132.972778,370.600433 134.586533,367.897949 
z"/>
<path fill="#000000" opacity="1.000000" stroke="none" 
	d="
M177.692413,353.269531 
	C180.772705,351.259521 182.813660,352.710846 184.657913,354.932617 
	C187.267685,358.076538 189.904663,361.197876 193.088531,364.994965 
	C193.763947,360.304260 193.772064,356.681671 191.603149,353.398773 
	C193.191071,352.202423 194.537674,352.000031 196.309814,353.051117 
	C194.043549,359.725708 196.370758,366.916779 194.281555,375.053314 
	C188.634354,370.478912 185.633743,364.680115 180.565109,359.824554 
	C180.401138,365.024109 179.451538,369.514374 182.044235,373.688568 
	C180.624466,374.637756 179.345306,374.352600 177.868835,373.924957 
	C178.551468,367.158173 179.761810,360.338867 177.692413,353.269531 
z"/>
<path fill="#000000" opacity="1.000000" stroke="none" 
	d="
M361.781525,366.380371 
	C360.459473,366.078583 359.853302,364.725861 358.110901,365.158508 
	C357.073578,367.469696 356.144409,370.557129 358.683685,372.036133 
	C362.566162,374.297455 363.788361,369.885498 365.810089,367.720337 
	C368.281250,372.609406 367.482483,374.243286 362.629181,374.350983 
	C358.846039,374.434906 355.059540,374.367798 351.113739,374.367798 
	C351.871429,366.895874 352.064056,360.019318 351.042816,352.629181 
	C354.513428,352.454926 358.090210,352.263397 361.668213,352.098724 
	C366.142090,351.892731 367.125732,354.097931 365.682007,358.446594 
	C363.517303,356.554382 362.025635,352.822784 358.799103,354.884644 
	C356.173676,356.562408 357.296448,359.478485 357.794525,361.870483 
	C360.049622,362.310059 360.193298,359.984589 361.975372,359.604919 
	C362.527527,361.867249 362.754211,364.049652 361.781525,366.380371 
z"/>
<path fill="#000000" opacity="1.000000" stroke="none" 
	d="
M255.289124,373.458588 
	C250.897797,375.846313 246.981903,374.579712 243.025192,373.259186 
	C242.609558,371.215424 242.426559,369.272278 243.188049,367.048981 
	C245.194000,367.846100 245.062988,370.064362 246.268143,371.237762 
	C247.909836,372.836029 249.842941,373.416168 251.597748,371.930115 
	C253.506470,370.313599 252.244095,368.528870 250.898117,367.235687 
	C249.468735,365.862396 247.718826,364.829376 246.214935,363.525482 
	C243.864136,361.487427 241.809662,359.104767 243.348328,355.783966 
	C244.861008,352.519165 247.959473,351.611664 251.300323,351.854858 
	C253.085815,351.984802 254.833267,352.637421 256.678375,353.073181 
	C257.599731,354.965790 257.474976,356.853516 256.849274,358.789978 
	C254.539413,359.186066 254.720276,357.050659 253.902802,356.033936 
	C252.590134,354.401276 251.054443,353.410919 249.287979,354.984711 
	C247.559738,356.524414 248.742188,358.048706 250.073486,359.173370 
	C251.592163,360.456390 253.319031,361.491272 254.854416,362.756531 
	C258.998352,366.171417 259.179230,369.035797 255.289124,373.458588 
z"/>
<path fill="#000000" opacity="1.000000" stroke="none" 
	d="
M197.873322,354.179871 
	C199.443573,351.490906 201.792526,352.211914 203.862747,352.151825 
	C206.180527,352.084534 208.514938,352.400604 210.823883,352.256927 
	C217.094986,351.866608 217.758865,352.558075 216.679382,358.925262 
	C214.740891,359.269226 214.823944,357.411560 214.080231,356.491089 
	C213.325974,355.557526 212.590134,354.712006 210.499680,355.075226 
	C210.565796,361.292664 209.201981,367.592773 211.798279,373.920197 
	C209.041595,374.701233 206.292587,374.479462 203.358887,373.963043 
	C205.668030,367.613464 204.448044,361.344147 204.469864,355.121460 
	C200.385147,354.496826 201.130753,358.442383 198.845825,359.420868 
	C197.113831,358.152374 197.915085,356.240143 197.873322,354.179871 
z"/>
<path fill="#000000" opacity="1.000000" stroke="none" 
	d="
M339.244263,367.634125 
	C339.411499,369.647003 338.635559,371.794006 340.767242,372.378296 
	C344.272522,373.339020 345.299316,369.771423 347.351746,367.898560 
	C349.033844,373.701660 348.675293,374.257568 343.255035,374.352478 
	C339.777740,374.413391 336.298492,374.363892 332.505585,374.363892 
	C333.209900,367.073486 333.252289,360.180298 332.713806,353.076874 
	C335.102875,352.011505 337.511536,352.808319 340.323425,352.313324 
	C338.698853,357.655151 339.444305,362.444641 339.244263,367.634125 
z"/>
</svg>